<?xml version="1.0" encoding="utf-8"?>
<svg version="1.1" xmlns:xlink="http://www.w3.org/1999/xlink" width="15px" height="15px" xmlns="http://www.w3.org/2000/svg">
  <g transform="matrix(1 0 0 1 -92 -7 )">
    <path d="M 99.5 7  C 103.7 7  107 10.3  107 14.5  C 107 18.7  103.7 22  99.5 22  C 95.3 22  92 18.7  92 14.5  C 92 10.3  95.3 7  99.5 7  Z " fill-rule="nonzero" fill="#ff3333" stroke="none" />
    <path d="M 99.5 7.5  C 103.42 7.5  106.5 10.58  106.5 14.5  C 106.5 18.42  103.42 21.5  99.5 21.5  C 95.58 21.5  92.5 18.42  92.5 14.5  C 92.5 10.58  95.58 7.5  99.5 7.5  Z " stroke-width="1" stroke="#797979" fill="none" />
  </g>
</svg>